<svg width="16" height="17" viewBox="0 0 16 17" fill="none" xmlns="http://www.w3.org/2000/svg">
<path fill-rule="evenodd" clip-rule="evenodd" d="M14.3999 0.997803H1.59999C0.720081 0.997803 0 1.71775 0 2.59832V15.3981C0 16.2782 0.720081 16.9979 1.59999 16.9979H14.3999C15.28 16.9979 16.0001 16.2782 16.0001 15.3981V2.59832C16.0001 1.71775 15.28 0.997803 14.3999 0.997803ZM8.00001 5.79815C9.76005 5.79815 11.2 7.2383 11.2 8.99823C11.2 10.7584 9.76005 12.1976 8.00001 12.1976C6.24004 12.1976 4.79995 10.7584 4.79995 8.99823C4.79995 7.2383 6.24004 5.79815 8.00001 5.79815ZM2.00009 15.3981C1.75997 15.3981 1.59999 15.2378 1.59999 14.9978V8.19821H3.28001C3.19996 8.43843 3.19996 8.75801 3.19996 8.99823C3.19996 11.6375 5.36003 13.7986 8.00001 13.7986C10.64 13.7986 12.8 11.6375 12.8 8.99823C12.8 8.75801 12.8 8.43843 12.72 8.19821H14.3999V14.9978C14.3999 15.2378 14.2399 15.3981 14 15.3981H2.00009ZM14.3999 4.59777C14.3999 4.83751 14.2399 4.99789 14 4.99789H12.4C12.16 4.99789 12 4.83751 12 4.59777V2.99822C12 2.75775 12.16 2.59832 12.4 2.59832H14C14.2399 2.59832 14.3999 2.75775 14.3999 2.99822V4.59777Z" fill="#838383"/>
</svg>
