<svg width="18" height="11" viewBox="0 0 18 11" fill="none" xmlns="http://www.w3.org/2000/svg">
<path fill-rule="evenodd" clip-rule="evenodd" d="M5.21404 0.0285645H0V10.8915H5.3689C7.37022 10.8915 9.27909 9.95297 9.27909 7.76062C9.27909 6.41682 8.59663 5.40279 7.24596 5.02474C8.2086 4.57147 8.75142 3.83138 8.75142 2.77245C8.75142 0.761366 7.32446 0.0285645 5.21404 0.0285645ZM4.90336 4.46543H2.22715V1.94066H4.71698C5.58573 1.94066 6.39357 2.15297 6.39357 3.18059C6.39357 4.08835 5.75696 4.46543 4.90336 4.46543ZM5.04299 9.04643H2.22715V6.08246H5.08972C6.12971 6.08246 6.84262 6.52165 6.84262 7.62498C6.84262 8.74481 6.00554 9.04643 5.04299 9.04643ZM14.1704 9.38322C12.9451 9.38322 12.2626 8.96611 12.2006 7.60605H17.9879C18.1428 5.20236 16.8237 2.76129 14.093 2.76129C11.6576 2.76129 9.99746 4.54551 9.99746 6.8883C9.99746 9.30753 11.564 11.0005 14.093 11.0005C15.9091 11.0005 17.2283 10.589 17.8484 8.74335H15.9091C15.7696 9.22794 15.0556 9.38322 14.1704 9.38322ZM14.0309 4.37905C15.1014 4.37905 15.5832 5.36154 15.7848 6.44958H12.2006C12.2311 5.84489 12.6344 4.37905 14.0309 4.37905ZM11.1596 2.18791H16.7027V1.0875H11.1596V2.18791Z" fill="#838383"/>
</svg>
