<svg width="16" height="17" viewBox="0 0 16 17" fill="none" xmlns="http://www.w3.org/2000/svg">
<path fill-rule="evenodd" clip-rule="evenodd" d="M8.32235 7.60489C7.27635 8.52503 7.88668 9.07317 9.51948 10.2333C11.1523 11.3939 11.6094 13.9614 9.49797 15.8227C7.38578 17.6843 0.962891 17.4344 0.962891 13.9808C0.962891 10.5259 5.79589 10.4733 6.18948 10.4733C6.58004 10.4733 6.64648 10.3646 6.31926 10.0137C5.9922 9.66427 5.46874 8.98533 6.08004 8.24065C4.99016 8.28457 1.98633 7.69297 1.98633 4.93113C1.98633 2.17171 4.8818 0.989746 5.92583 0.989746H11.1299C11.1299 0.989746 10.8916 1.18751 10.3467 1.49181C9.80183 1.79899 8.77928 1.64709 8.77928 1.64709C8.77928 1.64709 10.1942 2.52185 10.1942 4.23109C10.1942 5.94055 9.36713 6.68525 8.32235 7.60489ZM6.42764 7.56025C3.83587 7.56025 2.66016 1.51559 5.70893 1.51559C8.082 1.42701 9.86713 7.56025 6.42764 7.56025ZM2.81243 13.3445C2.81243 14.9446 3.96678 16.0173 6.12011 16.0173C8.27253 16.0173 9.54104 15.2957 9.54104 13.8048C9.54104 12.5391 8.51502 11.8111 7.7175 11.2451C7.5755 11.1444 7.44074 11.0487 7.32031 10.9561C4.38089 10.9561 2.81243 11.7447 2.81243 13.3445ZM14.0146 2.99527V1.02955H12.9972V2.99527H11.0049V4.01489H12.9972V5.98447H14.0146V4.01489H15.9736V2.99527H14.0146Z" fill="#838383"/>
</svg>
