<svg width="17" height="16" viewBox="0 0 17 16" fill="none" xmlns="http://www.w3.org/2000/svg">
<path fill-rule="evenodd" clip-rule="evenodd" d="M8.98807 0.0179C4.57006 0.0179 0.988065 3.59263 0.988065 8.00207C0.988065 11.2885 2.9783 14.1115 5.821 15.3362C5.79957 14.781 5.82009 14.1164 5.96168 13.5144C6.11605 12.8643 6.99499 9.14883 6.99499 9.14883C6.99499 9.14883 6.73908 8.63661 6.73908 7.87953C6.73908 6.69297 7.42846 5.80609 8.28688 5.80609C9.01737 5.80609 9.36992 6.35422 9.36992 7.01011C9.36992 7.74195 8.90208 8.83727 8.66084 9.8535C8.45964 10.7033 9.08862 11.397 9.92855 11.397C11.449 11.397 12.4733 9.44657 12.4733 7.13532C12.4733 5.37925 11.2898 4.06457 9.13348 4.06457C6.69796 4.06457 5.17948 5.87742 5.17948 7.90185C5.17948 8.60044 5.38645 9.094 5.7097 9.47496C5.85813 9.64918 5.87872 9.72051 5.82489 9.92143C5.78591 10.0687 5.69902 10.423 5.66197 10.5645C5.60816 10.7676 5.44313 10.8394 5.25944 10.7644C4.13836 10.3072 3.61508 9.08211 3.61508 7.70433C3.61508 5.42681 5.53879 2.69675 9.35331 2.69675C12.4197 2.69675 14.4364 4.91095 14.4364 7.2877C14.4364 10.432 12.6853 12.7794 10.1042 12.7794C9.23705 12.7794 8.42155 12.3115 8.14326 11.7821C8.14326 11.7821 7.67656 13.6269 7.57884 13.9837C7.40989 14.5927 7.08471 15.201 6.78394 15.6793C7.48318 15.879 8.22336 15.9865 8.98807 15.9865C13.4061 15.9865 16.9881 12.4113 16.9881 8.00207C16.9881 3.59263 13.4061 0.0179 8.98807 0.0179Z" fill="#838383"/>
</svg>
