<svg width="17" height="14" viewBox="0 0 17 14" fill="none" xmlns="http://www.w3.org/2000/svg">
<path fill-rule="evenodd" clip-rule="evenodd" d="M16.5615 1.5871C16.292 1.73487 15.4834 2.0309 14.7295 2.10516C15.2129 1.84455 15.9287 0.993096 16.1055 0.315863C15.6407 0.611896 14.5732 1.04332 14.0459 1.04332L14.047 1.04502C13.4453 0.417767 12.5996 0.0268555 11.6601 0.0268555C9.83795 0.0268555 8.35945 1.50193 8.35945 3.32158C8.35945 3.57441 8.38966 3.82022 8.44428 4.05559C5.97156 3.99177 3.08009 2.75522 1.4512 0.638584C0.451285 2.36722 1.31645 4.2895 2.45227 4.98978C2.06454 5.02036 1.34765 4.9466 1.01072 4.61902C0.987276 5.76652 1.54109 7.28697 3.55657 7.83729C3.16794 8.04646 2.48248 7.98652 2.1826 7.9414C2.28813 8.91127 3.6475 10.1782 5.13277 10.1782C4.60355 10.7882 2.79691 11.8985 0.561523 11.545C2.0801 12.4685 3.85058 13.0019 5.72453 13.0019C11.0499 13.0019 15.1855 8.69482 14.9629 3.38126C14.9629 3.37519 14.9609 3.36865 14.9609 3.3633C14.9609 3.34874 14.9629 3.33346 14.9629 3.32158C14.9629 3.3053 14.9609 3.28881 14.9609 3.27207C15.4453 2.94255 16.0956 2.35751 16.5615 1.5871Z" fill="#838383"/>
</svg>
